<?xml version="1.0" standalone="no"?>
<!DOCTYPE svg PUBLIC "-//W3C//DTD SVG 20010904//EN"
 "http://www.w3.org/TR/2001/REC-SVG-20010904/DTD/svg10.dtd">
<svg version="1.0" xmlns="http://www.w3.org/2000/svg"
 width="181.000000pt" height="181.000000pt" viewBox="0 0 181.000000 181.000000"
 preserveAspectRatio="xMidYMid meet">
<metadata>
Created by potrace 1.11, written by Peter Selinger 2001-2013
</metadata>
<g transform="translate(0.000000,181.000000) scale(0.100000,-0.100000)"
fill="#000000" stroke="none">
<path d="M710 1333 l0 -273 -120 0 -120 0 0 -80 0 -79 107 -3 107 -3 -107 -80
-108 -80 120 -3 121 -3 2 -249 3 -250 98 75 c54 41 100 75 102 75 3 0 47 -31
99 -70 52 -38 97 -70 100 -70 3 0 6 110 6 245 l0 244 116 3 117 3 -108 83
-108 82 111 0 112 0 0 80 0 80 -120 0 -120 0 0 275 0 275 -52 -4 c-50 -4 -55
-7 -97 -57 -24 -30 -47 -54 -51 -54 -4 0 -28 25 -53 56 l-46 56 -55 -1 -56 0
0 -273z m370 -117 c0 -6 -158 -116 -166 -116 -8 0 -164 110 -164 116 0 2 74 4
165 4 91 0 165 -2 165 -4z m-96 -450 c44 -52 44 -49 -31 -135 l-39 -44 -52 64
c-29 35 -52 66 -52 69 0 3 23 34 52 68 50 61 52 63 67 44 9 -11 33 -40 55 -66z"/>
<path d="M520 1282 c-13 -10 -23 -33 -27 -58 -4 -33 -1 -45 19 -69 55 -63 146
-16 135 69 -7 47 -36 76 -77 76 -15 0 -38 -8 -50 -18z"/>
<path d="M1212 1293 c-23 -9 -44 -64 -38 -98 13 -70 89 -92 134 -40 20 24 23
36 19 69 -8 60 -60 91 -115 69z"/>
<path d="M497 651 l-49 -61 48 -55 c26 -30 49 -55 50 -55 1 0 24 25 49 55 53
62 54 57 -17 138 l-33 38 -48 -60z"/>
</g>
</svg>
